<svg width="25" height="25" viewBox="0 0 25 25" fill="none" xmlns="http://www.w3.org/2000/svg">
<path d="M20.1638 14.4651C20.0739 14.5277 18.2097 16.5003 18.2097 17.8848C18.2097 19.3445 19.1369 20.2766 20.1638 20.3274C21.049 20.3704 22.1179 19.4569 22.1179 17.8848C22.1179 16.4192 20.2537 14.5277 20.1638 14.4651ZM9.98883 20.3274C10.3582 20.6967 10.8486 20.9 11.3704 20.9C11.8921 20.9 12.3826 20.6967 12.7519 20.3274L19.5912 13.4881L18.9005 12.7973L11.3704 5.26722L9.13 3.02686L7.74846 4.4084L9.98883 6.64877L4.53105 12.1066C4.16172 12.4759 3.9585 12.9664 3.9585 13.4881C3.9585 14.0098 4.16172 14.5003 4.53105 14.8696L9.98883 20.3274ZM11.3704 8.03031L16.8282 13.4881H5.91259L11.3704 8.03031Z" fill="white"/>
</svg>
