<svg width="24" height="24" viewBox="0 0 24 24" fill="none" xmlns="http://www.w3.org/2000/svg">
<path d="M14.25 1.5C13.6533 1.5 13.081 1.73705 12.659 2.15901C12.2371 2.58097 12 3.15326 12 3.75V6.75C12.0001 7.21523 12.1443 7.66901 12.413 8.04885C12.6816 8.42869 13.0614 8.71592 13.5 8.871V10.5C13.5001 10.6425 13.5407 10.7821 13.6172 10.9023C13.6937 11.0225 13.8029 11.1185 13.9319 11.1789C14.061 11.2394 14.2046 11.2618 14.3459 11.2436C14.4873 11.2253 14.6205 11.1672 14.73 11.076L17.22 9H20.25C20.8467 9 21.419 8.76295 21.841 8.34099C22.2629 7.91903 22.5 7.34674 22.5 6.75V3.75C22.5 3.15326 22.2629 2.58097 21.841 2.15901C21.419 1.73705 20.8467 1.5 20.25 1.5H14.25ZM13.5 3.75C13.5 3.55109 13.579 3.36032 13.7197 3.21967C13.8603 3.07902 14.0511 3 14.25 3H20.25C20.4489 3 20.6397 3.07902 20.7803 3.21967C20.921 3.36032 21 3.55109 21 3.75V6.75C21 6.94891 20.921 7.13968 20.7803 7.28033C20.6397 7.42098 20.4489 7.5 20.25 7.5H16.95C16.7746 7.50008 16.6047 7.56165 16.47 7.674L15 8.898V8.25C15 8.05109 14.921 7.86032 14.7803 7.71967C14.6397 7.57902 14.4489 7.5 14.25 7.5C14.0511 7.5 13.8603 7.42098 13.7197 7.28033C13.579 7.13968 13.5 6.94891 13.5 6.75V3.75ZM4.5 9C4.5 8.20435 4.81607 7.44129 5.37868 6.87868C5.94129 6.31607 6.70435 6 7.5 6C8.29565 6 9.05871 6.31607 9.62132 6.87868C10.1839 7.44129 10.5 8.20435 10.5 9C10.5 9.79565 10.1839 10.5587 9.62132 11.1213C9.05871 11.6839 8.29565 12 7.5 12C6.70435 12 5.94129 11.6839 5.37868 11.1213C4.81607 10.5587 4.5 9.79565 4.5 9ZM7.5 7.5C7.10218 7.5 6.72064 7.65804 6.43934 7.93934C6.15804 8.22064 6 8.60218 6 9C6 9.39782 6.15804 9.77936 6.43934 10.0607C6.72064 10.342 7.10218 10.5 7.5 10.5C7.89782 10.5 8.27936 10.342 8.56066 10.0607C8.84196 9.77936 9 9.39782 9 9C9 8.60218 8.84196 8.22064 8.56066 7.93934C8.27936 7.65804 7.89782 7.5 7.5 7.5ZM3.75 13.5H11.25C11.8467 13.5 12.419 13.7371 12.841 14.159C13.2629 14.581 13.5 15.1533 13.5 15.75C13.5 17.424 12.8115 18.765 11.682 19.6725C10.5705 20.565 9.0795 21 7.5 21C5.9205 21 4.4295 20.565 3.318 19.6725C2.19 18.765 1.5 17.424 1.5 15.75C1.5 15.1533 1.73705 14.581 2.15901 14.159C2.58097 13.7371 3.15326 13.5 3.75 13.5ZM11.25 15H3.75C3.55109 15 3.36032 15.079 3.21967 15.2197C3.07902 15.3603 3 15.5511 3 15.75C3 16.9755 3.4875 17.8845 4.257 18.5025C5.046 19.1355 6.18 19.5 7.5 19.5C8.82 19.5 9.954 19.1355 10.743 18.5025C11.5125 17.8845 12 16.9755 12 15.75C12 15.5511 11.921 15.3603 11.7803 15.2197C11.6397 15.079 11.4489 15 11.25 15Z" fill="white"/>
</svg>
