<svg width="31" height="31" viewBox="0 0 31 31" fill="none" xmlns="http://www.w3.org/2000/svg">
<path fill-rule="evenodd" clip-rule="evenodd" d="M15.9275 18.986V16.9391H12.8182C12.4879 16.9384 12.1609 17.0054 11.8575 17.136C11.5541 17.2667 11.2808 17.4581 11.0543 17.6986C10.8278 17.9391 10.6531 18.2234 10.5409 18.5341C10.4287 18.8448 10.3814 19.1752 10.4019 19.5049C10.4224 19.8346 10.5103 20.1565 10.6602 20.4509C10.8101 20.7452 11.0188 21.0057 11.2733 21.2163C11.5279 21.4268 11.8229 21.5829 12.1401 21.6748C12.4574 21.7668 12.7901 21.7928 13.1178 21.7511L13.532 21.699C14.1932 21.6164 14.8014 21.2952 15.2426 20.7958C15.6837 20.2964 15.9273 19.6523 15.9275 18.986Z" fill="white"/>
<path d="M15.928 12.4781V12.0239C15.928 10.8201 15.928 10.2186 16.2805 9.803C16.6329 9.38664 17.2262 9.28775 18.4128 9.08924L20.166 8.79778C20.2672 8.78142 20.3177 8.7725 20.3445 8.80224C20.372 8.83198 20.3594 8.88105 20.3348 8.98068L19.6694 11.6432C19.6582 11.6878 19.6523 11.7101 19.6367 11.725C19.6218 11.7398 19.5995 11.7443 19.5541 11.7532L15.928 12.4781ZM15.928 12.4781V16.9392M15.928 16.9392V18.9861C15.9281 19.6527 15.6847 20.2964 15.2435 20.7961C14.8024 21.2958 14.1939 21.6172 13.5325 21.6999L13.1183 21.7519C12.791 21.7928 12.4588 21.7662 12.1422 21.6737C11.8256 21.5813 11.5313 21.425 11.2774 21.2145C11.0235 21.004 10.8154 20.7437 10.6659 20.4497C10.5164 20.1557 10.4287 19.8342 10.4082 19.505C10.3877 19.1758 10.4349 18.8459 10.5467 18.5356C10.6586 18.2253 10.8328 17.9412 11.0586 17.7008C11.2845 17.4605 11.5571 17.2689 11.8598 17.1379C12.1625 17.0069 12.4889 16.9393 12.8187 16.9392H15.928Z" stroke="white" stroke-width="1.48702"/>
</svg>
