<svg width="27" height="27" viewBox="0 0 27 27" fill="none" xmlns="http://www.w3.org/2000/svg">
<path d="M7.66202 6.62406C7.60757 6.46061 7.50307 6.31843 7.36331 6.21768C7.22356 6.11693 7.05564 6.06271 6.88336 6.06271C6.71108 6.06271 6.54316 6.11693 6.40341 6.21768C6.26365 6.31843 6.15915 6.46061 6.1047 6.62406L2.00111 18.9348C1.95998 19.0582 1.94876 19.1896 1.96837 19.3182C1.98798 19.4467 2.03787 19.5688 2.11391 19.6743C2.18996 19.7798 2.28999 19.8657 2.40575 19.925C2.52152 19.9842 2.64971 20.0151 2.77976 20.0151H10.987C11.117 20.0151 11.2452 19.9842 11.361 19.925C11.4767 19.8657 11.5768 19.7798 11.6528 19.6743C11.7289 19.5688 11.7787 19.4467 11.7984 19.3182C11.818 19.1896 11.8067 19.0582 11.7656 18.9348L7.66202 6.62406ZM3.91851 18.3737L6.88336 9.47914L9.84821 18.3737H3.91851ZM21.6563 8.11469C21.6563 7.05959 21.3434 6.02819 20.7573 5.1509C20.1711 4.27362 19.3379 3.58986 18.3631 3.18609C17.3883 2.78233 16.3157 2.67668 15.2809 2.88252C14.2461 3.08836 13.2955 3.59644 12.5494 4.34251C11.8034 5.08857 11.2953 6.03912 11.0895 7.07395C10.8836 8.10877 10.9893 9.1814 11.393 10.1562C11.7968 11.131 12.4806 11.9641 13.3578 12.5503C14.2351 13.1365 15.2665 13.4494 16.3216 13.4494C17.736 13.4477 19.0919 12.8852 20.092 11.8851C21.0921 10.885 21.6547 9.52903 21.6563 8.11469ZM12.6284 8.11469C12.6284 7.38424 12.845 6.67019 13.2508 6.06284C13.6566 5.45549 14.2334 4.98212 14.9083 4.70259C15.5831 4.42305 16.3257 4.34992 17.0421 4.49242C17.7586 4.63492 18.4166 4.98667 18.9331 5.50318C19.4497 6.01969 19.8014 6.67776 19.9439 7.39418C20.0864 8.11059 20.0133 8.85318 19.7337 9.52803C19.4542 10.2029 18.9808 10.7797 18.3735 11.1855C17.7661 11.5913 17.0521 11.8079 16.3216 11.8079C15.3421 11.8079 14.4027 11.4188 13.7101 10.7262C13.0175 10.0336 12.6284 9.0942 12.6284 8.11469ZM23.2977 15.0908H14.2698C14.0522 15.0908 13.8434 15.1773 13.6895 15.3312C13.5356 15.4851 13.4491 15.6939 13.4491 15.9115V21.6566C13.4491 21.8742 13.5356 22.083 13.6895 22.2369C13.8434 22.3908 14.0522 22.4773 14.2698 22.4773H23.2977C23.5154 22.4773 23.7242 22.3908 23.8781 22.2369C24.032 22.083 24.1185 21.8742 24.1185 21.6566V15.9115C24.1185 15.6939 24.032 15.4851 23.8781 15.3312C23.7242 15.1773 23.5154 15.0908 23.2977 15.0908ZM22.477 20.8358H15.0906V16.7322H22.477V20.8358Z" fill="white"/>
</svg>
