<svg width="24" height="24" viewBox="0 0 24 24" fill="none" xmlns="http://www.w3.org/2000/svg">
<g clip-path="url(#clip0_2025_265)">
<path d="M24.0001 14.5587C23.9202 14.9383 23.6705 15.2035 23.4006 15.4581C23.111 15.7313 22.836 16.0199 22.5405 16.2866C22.3798 16.4315 22.346 16.5907 22.3819 16.7896C22.4705 17.2803 22.5531 17.7722 22.6377 18.2636C22.7582 18.964 22.3783 19.5119 21.7034 19.6037C21.4524 19.6379 21.2258 19.5504 21.0095 19.4359C20.5678 19.2022 20.1249 18.9705 19.6877 18.7284C19.6191 18.6843 19.5393 18.6606 19.4577 18.6601C19.376 18.6596 19.2959 18.6823 19.2268 18.7256C18.7897 18.9678 18.3468 19.1996 17.9046 19.4324C17.3415 19.7288 16.9591 19.6777 16.5099 19.2304C16.395 19.116 16.3599 19.1725 16.3161 19.275C16.2451 19.441 16.2637 19.6131 16.2921 19.7822C16.4339 20.6275 16.5845 21.4714 16.7227 22.3173C16.8149 22.8816 16.6346 23.3555 16.1794 23.7017C15.7298 24.0436 15.227 24.094 14.7232 23.8399C13.9425 23.4461 13.1701 23.0354 12.4021 22.6171C12.1278 22.4677 11.8886 22.459 11.6103 22.6126C10.8789 23.016 10.135 23.3972 9.39658 23.7884C8.86754 24.0688 8.33964 24.0791 7.84979 23.7231C7.35739 23.3653 7.17716 22.8667 7.28449 22.2617C7.43021 21.4408 7.56655 20.6182 7.70333 19.7958C7.73146 19.6268 7.75427 19.4539 7.68914 19.2875C7.64732 19.1807 7.6085 19.1065 7.48172 19.2362C7.05908 19.6679 6.65901 19.7267 6.12747 19.4495C5.67738 19.2148 5.22804 18.9786 4.78421 18.7326C4.71239 18.6864 4.62883 18.6616 4.54339 18.6612C4.45794 18.6608 4.37417 18.6848 4.30193 18.7304C3.84453 18.9843 3.38401 19.2332 2.91692 19.4686C2.21497 19.8225 1.40669 19.4099 1.34249 18.674C1.31292 18.3344 1.40944 18.0087 1.45964 17.6783C1.5064 17.3702 1.56272 17.0636 1.61804 16.7568C1.63744 16.6735 1.63345 16.5864 1.60651 16.5052C1.57957 16.4239 1.53072 16.3517 1.46533 16.2963C1.09519 15.9494 0.737442 15.5891 0.375748 15.2332C0.0561877 14.9188 -0.0835925 14.5483 0.0516207 14.1067C0.182896 13.6774 0.485639 13.4278 0.923597 13.355C1.40838 13.2743 1.89473 13.1994 2.38294 13.1448C2.65137 13.1149 2.81952 13.0084 2.93067 12.7533C3.12689 12.3033 3.35431 11.8666 3.57142 11.4256C3.76783 11.0268 4.08326 10.8034 4.53579 10.8003C4.98994 10.7971 5.30706 11.022 5.50566 11.4174C5.74021 11.8844 5.97306 12.3528 6.18985 12.828C6.22198 12.911 6.27713 12.9832 6.34885 13.0361C6.42056 13.089 6.50587 13.1204 6.5948 13.1266C7.05889 13.188 7.52054 13.2677 7.98501 13.325C8.54461 13.3941 8.94269 13.6429 9.05946 14.2292C9.08684 14.3665 9.16435 14.3652 9.26531 14.3143C9.38449 14.2528 9.47966 14.1533 9.53568 14.0317C9.84486 13.4012 10.1517 12.7696 10.4622 12.1398C10.5184 12.0255 10.5293 11.9633 10.3666 11.9422C9.94664 11.8875 9.54396 11.7408 9.18748 11.5124C9.11247 11.4647 9.04202 11.428 8.94869 11.4727C8.66539 11.6083 8.36108 11.6202 8.05477 11.6114C7.71164 11.6015 7.36752 11.6387 7.02545 11.5822C6.43784 11.4853 5.99506 11.0169 5.99031 10.426C5.97831 8.93606 5.97831 7.446 5.99031 5.95582C5.99581 5.3151 6.49366 4.81702 7.1581 4.77576C7.59387 4.74873 8.03289 4.76452 8.47016 4.7742C8.59496 4.78175 8.71774 4.80935 8.83373 4.85596C9.17636 4.98079 9.17755 4.98704 9.39934 4.69293C9.87443 4.06252 10.4352 3.52729 11.1222 3.13063C11.2141 3.07131 11.311 3.02016 11.4119 2.97777C12.2209 2.68541 12.5472 2.02167 12.6693 1.25337C12.7677 0.633635 13.049 0.212317 13.639 -0.000213623H14.2954C15.0058 0.266807 15.2581 0.812645 15.237 1.53044C15.2063 2.56931 15.0245 3.57566 14.5924 4.52721C14.5124 4.70341 14.5221 4.77314 14.7425 4.76858C15.2734 4.75759 15.8048 4.76053 16.3359 4.76802C17.1763 4.77994 17.7174 5.4189 17.5808 6.24106C17.5591 6.37132 17.5746 6.43499 17.7011 6.49223C18.1687 6.70363 18.4079 7.09143 18.4101 7.58665C18.4123 8.08317 18.1691 8.46867 17.7074 8.68625C17.5846 8.74405 17.5551 8.8044 17.5826 8.93679C17.6778 9.39487 17.5376 9.78523 17.1936 10.0968C17.1019 10.1798 17.094 10.2494 17.1285 10.36C17.402 11.2397 16.8483 11.9932 15.9267 11.997C15.1768 12.0002 14.4269 11.9999 13.677 11.996C13.5256 11.9952 13.4765 12.023 13.5544 12.1789C13.8612 12.7929 14.1589 13.4114 14.4608 14.0277C14.5181 14.1577 14.6219 14.2617 14.7519 14.3195C14.8435 14.3582 14.9128 14.3685 14.9387 14.2378C15.0566 13.6437 15.4571 13.3884 16.0289 13.3232C16.486 13.271 16.9398 13.1908 17.3963 13.132C17.4892 13.1244 17.5779 13.0905 17.6522 13.0342C17.7264 12.9779 17.7829 12.9016 17.8151 12.8143C18.0175 12.3668 18.2427 11.9296 18.4554 11.4867C18.6573 11.0662 18.966 10.8001 19.4537 10.8001C19.9388 10.8001 20.253 11.0554 20.4548 11.4804C20.6722 11.9384 20.903 12.39 21.1194 12.8484C21.1927 13.0038 21.2928 13.0944 21.468 13.1168C21.8547 13.1667 22.2385 13.2426 22.6262 13.2806C23.2852 13.3452 23.8421 13.5323 24.0003 14.2772L24.0001 14.5587ZM8.11584 22.4603C8.10822 22.8569 8.29 23.0869 8.58899 23.1429C8.76453 23.1756 8.90862 23.091 9.0529 23.0148C9.77804 22.632 10.5058 22.255 11.2239 21.8601C11.75 21.5706 12.2565 21.574 12.7815 21.8618C13.5139 22.2632 14.2549 22.649 14.9939 23.0385C15.3611 23.232 15.7362 23.1231 15.8544 22.7882C15.9131 22.6217 15.8861 22.4487 15.8574 22.279C15.7225 21.4801 15.5986 20.6793 15.4469 19.8836C15.332 19.2802 15.5194 18.803 15.9521 18.3866C16.5594 17.8021 17.1505 17.2007 17.7536 16.6119C17.842 16.5337 17.9047 16.4307 17.9338 16.3165C17.9629 16.2022 17.9569 16.0818 17.9166 15.9709C17.8426 15.7379 17.6571 15.6339 17.4219 15.6006C16.6575 15.4913 15.8961 15.3538 15.1287 15.2743C14.3695 15.1956 13.8619 14.8441 13.5561 14.1368C13.2504 13.4295 12.8821 12.7478 12.5464 12.0521C12.4329 11.8168 12.2827 11.6555 11.9967 11.6562C11.7107 11.6569 11.5631 11.8221 11.4497 12.0564C11.076 12.8287 10.696 13.5981 10.3189 14.3686C10.0731 14.871 9.67132 15.1495 9.11753 15.2277C8.29119 15.3443 7.46722 15.477 6.64031 15.5902C6.3772 15.6262 6.16766 15.7234 6.08002 15.9794C5.98625 16.253 6.09502 16.4706 6.29962 16.6685C6.92243 17.2707 7.53499 17.8835 8.14998 18.4937C8.31793 18.6532 8.44436 18.8512 8.51831 19.0706C8.59226 19.2899 8.61148 19.524 8.57431 19.7524C8.53449 20.0458 8.47428 20.336 8.42465 20.6279C8.31657 21.2654 8.20961 21.9027 8.11584 22.4603ZM14.5114 11.1383C14.9802 11.1383 15.4487 11.1407 15.9174 11.1374C16.2044 11.1354 16.3448 11.018 16.3495 10.7896C16.3545 10.5497 16.2057 10.4136 15.9205 10.4073C15.6863 10.4022 15.4517 10.4081 15.2176 10.4034C15.02 10.3995 14.8717 10.312 14.7998 10.1218C14.6903 9.83192 14.8977 9.56359 15.2549 9.55135C15.606 9.53924 15.9579 9.5501 16.3093 9.54567C16.5996 9.54205 16.7602 9.40991 16.7611 9.18434C16.7619 8.96925 16.5809 8.81857 16.3095 8.81408C16.0752 8.81027 15.8406 8.82001 15.6066 8.80878C15.3519 8.79629 15.1809 8.62746 15.1741 8.40307C15.1672 8.17624 15.3231 8.00266 15.5751 7.96439C15.6527 7.95517 15.7308 7.95167 15.8089 7.95391C16.2464 7.9527 16.6839 7.95235 17.1212 7.95285C17.2491 7.95285 17.3745 7.94155 17.4625 7.83426C17.5088 7.78599 17.5401 7.7253 17.5524 7.65959C17.5648 7.59389 17.5577 7.52602 17.5321 7.46425C17.5051 7.39012 17.4548 7.32665 17.3889 7.2832C17.3229 7.23975 17.2447 7.21863 17.1658 7.22295C16.6893 7.22014 16.2128 7.22188 15.7364 7.21982C15.3738 7.21832 15.1756 7.06858 15.1742 6.79894C15.1728 6.522 15.3799 6.36296 15.7476 6.36009C15.9585 6.3584 16.1694 6.35809 16.3803 6.35784C16.4391 6.36201 16.498 6.35085 16.5512 6.32544C16.6044 6.30003 16.65 6.26126 16.6837 6.21291C16.7258 6.16095 16.7518 6.09784 16.7586 6.03132C16.7654 5.96481 16.7525 5.89777 16.7217 5.83841C16.6896 5.77112 16.6378 5.71506 16.5733 5.67758C16.5088 5.6401 16.4344 5.62293 16.3599 5.62831C15.6882 5.62912 15.0163 5.63062 14.3446 5.626C13.6728 5.62138 13.3541 5.109 13.6538 4.51205C13.8678 4.09555 14.0377 3.65795 14.1609 3.20634C14.3289 2.57238 14.4001 1.91673 14.3722 1.26155C14.3612 0.999398 14.2064 0.824628 13.9862 0.810896C13.7586 0.796603 13.6044 0.935422 13.5493 1.20556C13.5352 1.27422 13.5249 1.34369 13.5106 1.41235C13.2934 2.45615 12.8324 3.30827 11.7804 3.7485C11.1256 4.02251 10.6278 4.5156 10.1869 5.06125C10.0432 5.25587 9.88087 5.43597 9.70208 5.59897C9.67146 5.62191 9.647 5.65208 9.63093 5.68678C9.61486 5.72148 9.60767 5.75962 9.61 5.79778C9.61742 7.29516 9.62158 8.79255 9.6225 10.2899C9.62325 10.8491 9.62932 10.8614 10.17 11.0313C10.2594 11.0593 10.3504 11.0816 10.4426 11.098C10.7541 11.1535 11.0443 11.1585 11.3383 10.9713C11.7165 10.7306 12.164 10.698 12.5467 10.9209C12.9042 11.1292 13.2622 11.1467 13.6444 11.1394C13.9331 11.1344 14.2222 11.1388 14.5112 11.1383H14.5114ZM2.18053 18.5072C2.18153 18.7141 2.34487 18.8073 2.5431 18.7051C3.02182 18.458 3.49774 18.2055 3.97087 17.9476C4.143 17.8453 4.33956 17.7913 4.53985 17.7913C4.74013 17.7912 4.93673 17.845 5.10896 17.9471C5.56129 18.1939 6.01794 18.4329 6.47366 18.6735C6.59812 18.7392 6.73683 18.8291 6.84522 18.6646C6.94056 18.5198 6.85673 18.4024 6.74695 18.2963C6.3873 17.9496 6.02949 17.601 5.6735 17.2504C5.30093 16.8821 5.11221 16.4444 5.21754 15.9163C5.35438 15.2304 5.82391 14.8338 6.57743 14.7347C7.0724 14.6695 7.5658 14.5926 8.05933 14.5174C8.12434 14.5075 8.21205 14.5081 8.22136 14.4139C8.22457 14.3703 8.21264 14.327 8.18759 14.2912C8.16254 14.2554 8.1259 14.2293 8.08383 14.2173C8.01026 14.191 7.93385 14.1734 7.85617 14.1649C7.39308 14.0963 6.93099 14.0202 6.46616 13.9662C5.99063 13.9109 5.65312 13.6882 5.45083 13.2477C5.23929 12.7871 5.00869 12.3351 4.78571 11.8797C4.73427 11.7746 4.68994 11.662 4.54135 11.6619C4.39276 11.6618 4.34707 11.7727 4.29537 11.8781C4.06839 12.3403 3.83534 12.7997 3.61793 13.2663C3.42145 13.6879 3.09695 13.9064 2.63968 13.9641C2.1367 14.0276 1.6363 14.1111 1.13464 14.1849C1.02343 14.2012 0.914471 14.2208 0.870525 14.3441C0.821703 14.4809 0.912346 14.5636 0.996174 14.6468C1.37862 15.0261 1.76301 15.4035 2.14396 15.7844C2.28519 15.9152 2.38932 16.081 2.44581 16.265C2.50231 16.4489 2.50917 16.6444 2.46571 16.8319C2.44695 16.9234 2.43445 17.0162 2.41882 17.1084C2.33918 17.5772 2.25923 18.0453 2.18053 18.5072ZM23.1371 14.392C23.1213 14.2649 23.0292 14.211 22.9003 14.1919C22.3911 14.117 21.8835 14.0296 21.3728 13.9662C20.917 13.9097 20.586 13.7043 20.3881 13.2796C20.1675 12.806 19.929 12.3407 19.6981 11.8719C19.6457 11.7658 19.5958 11.6583 19.4477 11.6629C19.3117 11.6672 19.2672 11.7678 19.2188 11.867C18.9932 12.3296 18.7602 12.7889 18.5437 13.2559C18.3443 13.6866 18.0112 13.906 17.5468 13.9654C17.0363 14.0307 16.5283 14.1152 16.019 14.1901C15.8914 14.2089 15.7755 14.2608 15.7799 14.3987C15.7842 14.5337 15.9279 14.5198 16.0194 14.5345C16.3813 14.5926 16.7459 14.6343 17.1079 14.6915C17.453 14.7463 17.8089 14.7602 18.1206 14.9502C18.9181 15.4357 19.0481 16.4951 18.381 17.1891C18.008 17.5771 17.6138 17.9448 17.2271 18.3195C17.1199 18.4234 17.0661 18.5404 17.1562 18.6717C17.2505 18.8091 17.375 18.7514 17.4896 18.6905C17.9518 18.4456 18.4161 18.2047 18.8745 17.9529C19.2637 17.7391 19.6434 17.7362 20.0332 17.9504C20.4916 18.2022 20.9556 18.4438 21.4176 18.6889C21.5151 18.7406 21.6157 18.7957 21.7221 18.7105C21.8201 18.632 21.8204 18.5315 21.7998 18.4144C21.7064 17.8852 21.6303 17.3527 21.531 16.8246C21.4895 16.6372 21.4978 16.4422 21.555 16.2589C21.6121 16.0756 21.7161 15.9103 21.8568 15.7795C22.2377 15.3987 22.6218 15.0211 23.0039 14.6416C23.0706 14.5761 23.1424 14.5121 23.1371 14.392ZM8.7901 8.20651C8.7901 7.51218 8.7946 6.81773 8.78822 6.12346C8.78491 5.76013 8.64694 5.631 8.28913 5.62906C7.95312 5.62719 7.61712 5.62607 7.28118 5.62969C6.97487 5.633 6.8491 5.75059 6.84841 6.05362C6.84512 7.47357 6.84498 8.89351 6.84798 10.3135C6.8486 10.6255 6.97625 10.7473 7.29419 10.7519C7.60675 10.7564 7.9193 10.7538 8.23186 10.7532C8.66195 10.7523 8.78822 10.6289 8.79004 10.196C8.79266 9.533 8.79066 8.87 8.7901 8.20663V8.20651Z" fill="white"/>
</g>
<defs>
<clipPath id="clip0_2025_265">
<rect width="24" height="24" fill="white"/>
</clipPath>
</defs>
</svg>
