<svg width="24" height="35" viewBox="0 0 24 35" fill="none" xmlns="http://www.w3.org/2000/svg">
<g clip-path="url(#clip0_2034_438)">
<path d="M11.9915 13.3534C12.8028 13.3534 13.5963 13.5914 14.2736 14.0379C14.951 14.4844 15.4824 15.1197 15.8023 15.8653C16.1221 16.6109 16.2161 17.4339 16.0728 18.2324C15.9295 19.0309 15.5551 19.7698 14.996 20.3577C14.4368 20.9455 13.7175 21.3564 12.9272 21.5394C12.1369 21.7225 11.3102 21.6697 10.5495 21.3876C9.78891 21.1054 9.12775 20.6064 8.64796 19.9522C8.16816 19.298 7.8908 18.5175 7.85023 17.7072L7.84505 17.4999L7.85023 17.2926C7.90343 16.2301 8.36295 15.2287 9.13377 14.4955C9.90458 13.7623 10.9277 13.3534 11.9915 13.3534ZM11.9915 7.13365C12.2454 7.13369 12.4905 7.2269 12.6802 7.39562C12.87 7.56434 12.9912 7.79683 13.0209 8.04899L13.0282 8.17027V10.2435C13.0279 10.5077 12.9267 10.7619 12.7453 10.954C12.5639 11.1461 12.3161 11.2617 12.0523 11.2772C11.7885 11.2927 11.5288 11.2069 11.3262 11.0373C11.1236 10.8677 10.9934 10.6272 10.9622 10.3648L10.9549 10.2435V8.17027C10.9549 7.89535 11.0641 7.63168 11.2585 7.43727C11.4529 7.24287 11.7166 7.13365 11.9915 7.13365ZM17.893 10.1326C18.0796 9.94669 18.3299 9.83875 18.5932 9.83071C18.8564 9.82267 19.1128 9.91513 19.3104 10.0893C19.5079 10.2635 19.6318 10.5064 19.6567 10.7685C19.6817 11.0307 19.606 11.2926 19.4449 11.5009L19.3588 11.5984L17.9075 13.0497C17.721 13.2356 17.4707 13.3435 17.2074 13.3516C16.9442 13.3596 16.6877 13.2671 16.4902 13.0929C16.2927 12.9188 16.1688 12.6759 16.1438 12.4137C16.1189 12.1515 16.1946 11.8897 16.3557 11.6813L16.4418 11.5839L17.893 10.1326ZM21.3211 16.4633C21.5854 16.4636 21.8395 16.5647 22.0316 16.7461C22.2237 16.9275 22.3394 17.1754 22.3548 17.4391C22.3703 17.7029 22.2845 17.9626 22.1149 18.1652C21.9453 18.3678 21.7048 18.498 21.4424 18.5292L21.3211 18.5365H19.2479C18.9837 18.5362 18.7296 18.435 18.5374 18.2537C18.3453 18.0723 18.2297 17.8244 18.2142 17.5606C18.1987 17.2969 18.2845 17.0372 18.4541 16.8345C18.6237 16.6319 18.8643 16.5017 19.1266 16.4705L19.2479 16.4633H21.3211ZM16.4418 21.9501C16.6203 21.7716 16.8578 21.6644 17.1097 21.6486C17.3616 21.6327 17.6107 21.7093 17.8101 21.8641L17.9075 21.9501L19.3588 23.4014C19.5447 23.5879 19.6527 23.8382 19.6607 24.1015C19.6688 24.3647 19.5763 24.6212 19.4021 24.8187C19.2279 25.0163 18.9851 25.1401 18.7229 25.1651C18.4607 25.1901 18.1988 25.1143 17.9905 24.9532L17.893 24.8672L16.4418 23.4159C16.2474 23.2215 16.1383 22.9579 16.1383 22.683C16.1383 22.4081 16.2474 22.1445 16.4418 21.9501ZM11.9915 23.7196C12.2454 23.7197 12.4905 23.8129 12.6802 23.9816C12.87 24.1503 12.9912 24.3828 13.0209 24.635L13.0282 24.7562V26.8295C13.0279 27.0937 12.9267 27.3478 12.7453 27.54C12.5639 27.7321 12.3161 27.8477 12.0523 27.8632C11.7885 27.8787 11.5288 27.7928 11.3262 27.6233C11.1236 27.4537 10.9934 27.2131 10.9622 26.9508L10.9549 26.8295V24.7562C10.9549 24.4813 11.0641 24.2176 11.2585 24.0232C11.4529 23.8288 11.7166 23.7196 11.9915 23.7196ZM6.07554 21.9501C6.26208 21.7642 6.5124 21.6562 6.77565 21.6482C7.0389 21.6402 7.29534 21.7326 7.49289 21.9068C7.69043 22.081 7.81427 22.3239 7.83925 22.586C7.86422 22.8482 7.78846 23.1101 7.62736 23.3184L7.54132 23.4159L6.09005 24.8672C5.9035 25.0531 5.65318 25.161 5.38993 25.1691C5.12668 25.1771 4.87024 25.0846 4.6727 24.9104C4.47515 24.7363 4.35132 24.4934 4.32634 24.2312C4.30136 23.969 4.37712 23.7072 4.53822 23.4988L4.62426 23.4014L6.07554 21.9501ZM5.77181 16.4633C6.03602 16.4636 6.29015 16.5647 6.48227 16.7461C6.6744 16.9275 6.79001 17.1754 6.8055 17.4391C6.82098 17.7029 6.73517 17.9626 6.56558 18.1652C6.396 18.3678 6.15546 18.498 5.89309 18.5292L5.77181 18.5365H3.69856C3.43435 18.5362 3.18022 18.435 2.98809 18.2537C2.79597 18.0723 2.68035 17.8244 2.66487 17.5606C2.64938 17.2969 2.7352 17.0372 2.90478 16.8345C3.07436 16.6319 3.31491 16.5017 3.57728 16.4705L3.69856 16.4633H5.77181ZM4.62426 10.1326C4.80276 9.95412 5.04025 9.8469 5.29218 9.83106C5.54411 9.81522 5.79316 9.89184 5.99261 10.0466L6.09005 10.1326L7.54132 11.5839C7.72724 11.7704 7.83518 12.0207 7.84321 12.284C7.85125 12.5472 7.75879 12.8037 7.5846 13.0012C7.41041 13.1988 7.16756 13.3226 6.90538 13.3476C6.64319 13.3726 6.38133 13.2968 6.17298 13.1357L6.07554 13.0497L4.62426 11.5984C4.42993 11.404 4.32076 11.1404 4.32076 10.8655C4.32076 10.5906 4.42993 10.327 4.62426 10.1326Z" fill="white"/>
</g>
<defs>
<clipPath id="clip0_2034_438">
<rect width="23" height="35" fill="white" transform="translate(0.491455)"/>
</clipPath>
</defs>
</svg>
