<svg width="15" height="18" viewBox="0 0 15 18" fill="none" xmlns="http://www.w3.org/2000/svg">
<path d="M4.17476 0.750916V2.79271H6.21654V2.85396C4.42711 3.1125 2.80198 4.03915 1.66814 5.44746C0.534303 6.85576 -0.0241089 8.64123 0.105259 10.4446C0.234626 12.248 1.04217 13.9355 2.36542 15.1675C3.68867 16.3996 5.42942 17.0848 7.23744 17.0852C11.1781 17.0852 14.3837 13.8796 14.3837 9.93897C14.3837 9.02016 14.1795 8.16261 13.8733 7.38673L12.0152 8.16261C12.2398 8.75473 12.3419 9.32643 12.3419 9.95939C12.3419 12.7975 10.0755 15.0639 7.23744 15.0639C4.39935 15.0639 2.13297 12.7975 2.13297 9.95939C2.13297 7.1213 4.39935 4.85491 7.23744 4.85491C7.84998 4.85491 8.44209 4.957 9.03421 5.1816L9.72842 3.26232C9.25881 3.09897 8.76878 3.0173 8.25833 2.93563V2.81312H10.3001V0.771333H4.17476V0.750916ZM14.3837 3.11939C14.3837 3.11939 6.93117 8.85682 6.54323 9.24476C6.15529 9.65312 6.15529 10.2452 6.54323 10.6536C6.93117 11.062 7.54371 11.062 7.95206 10.6536C8.36042 10.2452 14.4041 3.11939 14.4041 3.11939H14.3837Z" fill="white"/>
</svg>
